<svg width="41" height="47" viewBox="0 0 41 47" fill="none" xmlns="http://www.w3.org/2000/svg">
<path d="M36.0917 0.916687H4.82499C2.66648 0.916687 0.916656 2.16474 0.916656 3.7043V9.27952C0.916656 10.8191 2.66648 12.0671 4.82499 12.0671H36.0917C38.2502 12.0671 40 10.8191 40 9.27952V3.7043C40 2.16474 38.2502 0.916687 36.0917 0.916687Z" stroke="black" stroke-linecap="round" stroke-linejoin="round"/>
<path d="M36.0917 17.6423H4.82499C2.66648 17.6423 0.916656 18.8904 0.916656 20.4299V26.0052C0.916656 27.5447 2.66648 28.7928 4.82499 28.7928H36.0917C38.2502 28.7928 40 27.5447 40 26.0052V20.4299C40 18.8904 38.2502 17.6423 36.0917 17.6423Z" stroke="black" stroke-linecap="round" stroke-linejoin="round"/>
<path d="M36.0024 34.4476H4.91435C2.76817 34.4476 1.02835 35.7313 1.02835 37.3149V43.0494C1.02835 44.6329 2.76817 45.9167 4.91435 45.9167H36.0024C38.1485 45.9167 39.8884 44.6329 39.8884 43.0494V37.3149C39.8884 35.7313 38.1485 34.4476 36.0024 34.4476Z" stroke="black" stroke-linecap="round" stroke-linejoin="round"/>
</svg>
