<svg width="42" height="47" viewBox="0 0 42 47" fill="none" xmlns="http://www.w3.org/2000/svg">
<path d="M36.175 1H4.90833C2.74982 1 1 2.24806 1 3.78761V9.36283C1 10.9024 2.74982 12.1504 4.90833 12.1504H36.175C38.3335 12.1504 40.0833 10.9024 40.0833 9.36283V3.78761C40.0833 2.24806 38.3335 1 36.175 1Z" stroke="#2C3C77" stroke-width="2" stroke-linecap="round" stroke-linejoin="round"/>
<path d="M36.175 17.7256H4.90833C2.74982 17.7256 1 18.9737 1 20.5133V26.0885C1 27.628 2.74982 28.8761 4.90833 28.8761H36.175C38.3335 28.8761 40.0833 27.628 40.0833 26.0885V20.5133C40.0833 18.9737 38.3335 17.7256 36.175 17.7256Z" stroke="#2C3C77" stroke-width="2" stroke-linecap="round" stroke-linejoin="round"/>
<path d="M36.0857 34.5309H4.99769C2.85152 34.5309 1.11169 35.8147 1.11169 37.3982V43.1327C1.11169 44.7163 2.85152 46 4.99769 46H36.0857C38.2319 46 39.9717 44.7163 39.9717 43.1327V37.3982C39.9717 35.8147 38.2319 34.5309 36.0857 34.5309Z" stroke="#2C3C77" stroke-width="2" stroke-linecap="round" stroke-linejoin="round"/>
</svg>
