<svg width="42" height="52" viewBox="0 0 42 52" fill="none" xmlns="http://www.w3.org/2000/svg">
<path d="M31 5.99994H36C37.3261 5.99994 38.5979 6.52672 39.5355 7.46441C40.4732 8.40209 41 9.67386 41 10.9999V45.9999C41 47.326 40.4732 48.5978 39.5355 49.5355C38.5979 50.4732 37.3261 50.9999 36 50.9999H6C4.67392 50.9999 3.40215 50.4732 2.46447 49.5355C1.52678 48.5978 1 47.326 1 45.9999V10.9999C1 9.67386 1.52678 8.40209 2.46447 7.46441C3.40215 6.52672 4.67392 5.99994 6 5.99994H11" stroke="black" stroke-linecap="round" stroke-linejoin="round"/>
<path d="M28.5 1H13.5C12.1193 1 11 2.11929 11 3.5V8.5C11 9.88071 12.1193 11 13.5 11H28.5C29.8807 11 31 9.88071 31 8.5V3.5C31 2.11929 29.8807 1 28.5 1Z" stroke="black" stroke-linecap="round" stroke-linejoin="round"/>
<path d="M21 15.2V41.6" stroke="black" stroke-linecap="round" stroke-linejoin="round"/>
<path d="M27 20H18C16.8861 20 15.8178 20.4425 15.0301 21.2302C14.2425 22.0178 13.8 23.0861 13.8 24.2C13.8 25.3139 14.2425 26.3822 15.0301 27.1698C15.8178 27.9575 16.8861 28.4 18 28.4H24C25.1139 28.4 26.1822 28.8425 26.9698 29.6302C27.7575 30.4178 28.2 31.4861 28.2 32.6C28.2 33.7139 27.7575 34.7822 26.9698 35.5699C26.1822 36.3575 25.1139 36.8 24 36.8H13.8" stroke="black" stroke-linecap="round" stroke-linejoin="round"/>
</svg>
