<svg data-v-423bf9ae="" xmlns="http://www.w3.org/2000/svg" viewBox="0 0 68.74851941651099 60" class="icon"><!----><!----><!----><!----><g data-v-423bf9ae="" id="9023c4fa-a3d4-4b80-ae2e-4d0b34d78311" transform="matrix(0.8930993169158438,0,0,0.8930993169158438,-10.291124208032514,-14.654172037271522)" stroke="none" fill="black"><path d="M88.5 41.26a1.35 1.35 0 0 0-.21-.68 1.38 1.38 0 0 0-.86-.58c-.47-.36-1.13-.82-2.11-1.47l-5.08-3.36a13.72 13.72 0 0 0-4.67-8.81A16.81 16.81 0 0 0 64 22.11a16.61 16.61 0 0 0-3 .29l-7.64-5.06a6.47 6.47 0 0 0-6.69 0L39 22.43a16.62 16.62 0 0 0-3.19-.32 17 17 0 0 0-11.52 4.17 13.7 13.7 0 0 0-4.73 9l-4.85 3.21c-1 .65-1.63 1.11-2.11 1.47a1.38 1.38 0 0 0-.86.58 1.35 1.35 0 0 0-.21.68 1.93 1.93 0 0 0 0 .33v37.56A4.48 4.48 0 0 0 16 83.59h68a4.48 4.48 0 0 0 4.48-4.48V41.58a1.94 1.94 0 0 0 .02-.32zm-3.92.11l-6.15 4.07a34.26 34.26 0 0 0 1.82-6.95l3.54 2.35zM48.19 19.66a3.7 3.7 0 0 1 3.62 0l5.76 3.82c-.35.16-.71.32-1 .51a14.08 14.08 0 0 0-5 4.81c-.73 1.2-1.27 2.19-1.66 3a34.52 34.52 0 0 0-1.71-3.07 14.14 14.14 0 0 0-5-4.77c-.27-.16-.57-.28-.86-.42zm-22.11 8.71a14.13 14.13 0 0 1 9.7-3.48 11.8 11.8 0 0 1 6 1.47 11.4 11.4 0 0 1 4 3.83A30.85 30.85 0 0 1 48 34.47c.4.91.77 1.76 1.81 1.77 1 0 1.41-.83 1.84-1.79a33.5 33.5 0 0 1 2.21-4.2 11.3 11.3 0 0 1 4-3.87 11.81 11.81 0 0 1 6-1.49 13.93 13.93 0 0 1 9.76 3.53 10.91 10.91 0 0 1 3.85 8.5c0 3-1.94 8.53-3.32 11.29l-1.39.92L50 64.27l-22.69-15a17.08 17.08 0 0 0-1.67-1.83 6.57 6.57 0 0 1-1.39-1.68 17.87 17.87 0 0 1-2.07-8.49 11.14 11.14 0 0 1 3.9-8.9zm-6.6 10.3A20.63 20.63 0 0 0 20.85 45l-5.43-3.6.78-.53zM84 80.81H16a1.7 1.7 0 0 1-1.7-1.7V43.93l35 23.17a1.39 1.39 0 0 0 1.54 0L74.4 51.45l11.34-7.51v35.17a1.7 1.7 0 0 1-1.74 1.7z"></path><path d="M45 49.5a7.53 7.53 0 0 0 3.79 1.3V56c-1.68-.36-3-1.34-3-2.43v-.13a1.16 1.16 0 0 0-2.31-.22v.35c0 2.41 2.23 4.36 5.28 4.81v2.39a1.16 1.16 0 0 0 2.32 0v-2.42c3.23-.34 5.65-2.33 5.65-4.83 0-2.11-1.82-4-4.53-4.58-.38-.09-.76-.15-1.13-.2v-5.12c1.68.36 3 1.34 3 2.43a1.16 1.16 0 0 0 2.32 0c0-2.41-2.23-4.36-5.27-4.81V39a1.16 1.16 0 0 0-2.32 0v2.19c-3.23.34-5.65 2.33-5.65 4.83A4.38 4.38 0 0 0 45 49.5zm6.71 1.7c1.61.37 2.74 1.33 2.74 2.33 0 1.18-1.48 2.23-3.34 2.51v-4.95c.25.03.45.06.65.11zm-2.92-7.65v4.92a5 5 0 0 1-2.42-.83 2.13 2.13 0 0 1-.92-1.58c.05-1.19 1.55-2.23 3.39-2.51z"></path></g><!----></svg>