<svg width="52" height="52" viewBox="0 0 52 52" fill="none" xmlns="http://www.w3.org/2000/svg">
<path d="M26 32.8182C29.7656 32.8182 32.8182 29.7656 32.8182 26C32.8182 22.2344 29.7656 19.1818 26 19.1818C22.2344 19.1818 19.1818 22.2344 19.1818 26C19.1818 29.7656 22.2344 32.8182 26 32.8182Z" stroke="#2C3C77" stroke-width="2" stroke-linecap="round" stroke-linejoin="round"/>
<path d="M42.8182 32.8182C42.5156 33.5037 42.4254 34.2641 42.5591 35.0013C42.6928 35.7386 43.0442 36.4189 43.5682 36.9545L43.7045 37.0909C44.1272 37.5131 44.4624 38.0144 44.6912 38.5662C44.9199 39.118 45.0377 39.7095 45.0377 40.3068C45.0377 40.9042 44.9199 41.4956 44.6912 42.0475C44.4624 42.5993 44.1272 43.1006 43.7045 43.5227C43.2824 43.9453 42.7811 44.2806 42.2293 44.5094C41.6775 44.7381 41.086 44.8558 40.4886 44.8558C39.8913 44.8558 39.2998 44.7381 38.748 44.5094C38.1962 44.2806 37.6949 43.9453 37.2727 43.5227L37.1364 43.3864C36.6007 42.8624 35.9204 42.5109 35.1832 42.3773C34.4459 42.2436 33.6855 42.3338 33 42.6364C32.3278 42.9245 31.7545 43.4028 31.3507 44.0126C30.9469 44.6223 30.7302 45.3368 30.7273 46.0682V46.4545C30.7273 47.6601 30.2484 48.8162 29.3959 49.6687C28.5435 50.5211 27.3873 51 26.1818 51C24.9763 51 23.8201 50.5211 22.9677 49.6687C22.1153 48.8162 21.6364 47.6601 21.6364 46.4545V46.25C21.6188 45.4977 21.3753 44.7682 20.9375 44.1561C20.4998 43.5441 19.888 43.0779 19.1818 42.8182C18.4963 42.5156 17.7359 42.4254 16.9987 42.5591C16.2614 42.6928 15.5811 43.0442 15.0455 43.5682L14.9091 43.7045C14.4869 44.1272 13.9856 44.4624 13.4338 44.6912C12.882 44.9199 12.2905 45.0377 11.6932 45.0377C11.0958 45.0377 10.5044 44.9199 9.95254 44.6912C9.40073 44.4624 8.89942 44.1272 8.47727 43.7045C8.05465 43.2824 7.71938 42.7811 7.49064 42.2293C7.26189 41.6775 7.14415 41.086 7.14415 40.4886C7.14415 39.8913 7.26189 39.2998 7.49064 38.748C7.71938 38.1962 8.05465 37.6949 8.47727 37.2727L8.61364 37.1364C9.13758 36.6007 9.48906 35.9204 9.62274 35.1832C9.75642 34.4459 9.66617 33.6855 9.36364 33C9.07554 32.3278 8.59717 31.7545 7.98742 31.3507C7.37767 30.9469 6.66315 30.7302 5.93182 30.7273H5.54545C4.33992 30.7273 3.18377 30.2484 2.33133 29.3959C1.47889 28.5435 1 27.3873 1 26.1818C1 24.9763 1.47889 23.8201 2.33133 22.9677C3.18377 22.1153 4.33992 21.6364 5.54545 21.6364H5.75C6.50226 21.6188 7.23183 21.3753 7.84386 20.9375C8.45589 20.4998 8.92208 19.888 9.18182 19.1818C9.48435 18.4963 9.5746 17.7359 9.44092 16.9987C9.30724 16.2614 8.95577 15.5811 8.43182 15.0455L8.29545 14.9091C7.87283 14.4869 7.53757 13.9856 7.30882 13.4338C7.08007 12.882 6.96233 12.2905 6.96233 11.6932C6.96233 11.0958 7.08007 10.5044 7.30882 9.95254C7.53757 9.40073 7.87283 8.89942 8.29545 8.47727C8.7176 8.05465 9.21892 7.71938 9.77073 7.49064C10.3225 7.26189 10.914 7.14415 11.5114 7.14415C12.1087 7.14415 12.7002 7.26189 13.252 7.49064C13.8038 7.71938 14.3051 8.05465 14.7273 8.47727L14.8636 8.61364C15.3993 9.13758 16.0796 9.48906 16.8168 9.62274C17.5541 9.75642 18.3145 9.66617 19 9.36364H19.1818C19.854 9.07554 20.4273 8.59717 20.8311 7.98742C21.2349 7.37767 21.4516 6.66315 21.4545 5.93182V5.54545C21.4545 4.33992 21.9334 3.18377 22.7859 2.33133C23.6383 1.47889 24.7945 1 26 1C27.2055 1 28.3617 1.47889 29.2141 2.33133C30.0666 3.18377 30.5455 4.33992 30.5455 5.54545V5.75C30.5484 6.48133 30.7651 7.19585 31.1689 7.8056C31.5727 8.41535 32.146 8.89372 32.8182 9.18182C33.5037 9.48435 34.2641 9.5746 35.0013 9.44092C35.7386 9.30724 36.4189 8.95577 36.9545 8.43182L37.0909 8.29545C37.5131 7.87283 38.0144 7.53757 38.5662 7.30882C39.118 7.08007 39.7095 6.96233 40.3068 6.96233C40.9042 6.96233 41.4956 7.08007 42.0475 7.30882C42.5993 7.53757 43.1006 7.87283 43.5227 8.29545C43.9453 8.7176 44.2806 9.21892 44.5094 9.77073C44.7381 10.3225 44.8558 10.914 44.8558 11.5114C44.8558 12.1087 44.7381 12.7002 44.5094 13.252C44.2806 13.8038 43.9453 14.3051 43.5227 14.7273L43.3864 14.8636C42.8624 15.3993 42.5109 16.0796 42.3773 16.8168C42.2436 17.5541 42.3338 18.3145 42.6364 19V19.1818C42.9245 19.854 43.4028 20.4273 44.0126 20.8311C44.6223 21.2349 45.3368 21.4516 46.0682 21.4545H46.4545C47.6601 21.4545 48.8162 21.9334 49.6687 22.7859C50.5211 23.6383 51 24.7945 51 26C51 27.2055 50.5211 28.3617 49.6687 29.2141C48.8162 30.0666 47.6601 30.5455 46.4545 30.5455H46.25C45.5187 30.5484 44.8041 30.7651 44.1944 31.1689C43.5846 31.5727 43.1063 32.146 42.8182 32.8182V32.8182Z" stroke="#2C3C77" stroke-width="2" stroke-linecap="round" stroke-linejoin="round"/>
</svg>
