<svg data-v-423bf9ae="" xmlns="http://www.w3.org/2000/svg" viewBox="0 0 326.2736752158717 163" class="iconAbove"><!----><!----><!----><g data-v-423bf9ae="" id="999f068a-756a-4aaf-b510-6d7a430e8da0" fill="#3A1C18" transform="matrix(4.2105263157894735,0,0,4.2105263157894735,-5.894738893759865,97.10526170856075)"><path d="M7.99 11.58L7.99 11.58Q8.18 11.58 8.29 11.68L8.29 11.68L8.29 11.68Q8.41 11.79 8.41 11.96L8.41 11.96L8.41 11.96Q8.41 12.12 8.29 12.23L8.29 12.23L8.29 12.23Q8.18 12.33 7.99 12.33L7.99 12.33L1.82 12.33L1.82 12.33Q1.65 12.33 1.53 12.21L1.53 12.21L1.53 12.21Q1.40 12.10 1.40 11.91L1.40 11.91L1.40 1.82L1.40 1.82Q1.40 1.64 1.53 1.52L1.53 1.52L1.53 1.52Q1.65 1.40 1.82 1.40L1.82 1.40L1.82 1.40Q2.00 1.40 2.12 1.52L2.12 1.52L2.12 1.52Q2.24 1.64 2.24 1.82L2.24 1.82L2.24 11.58L7.99 11.58ZM16.51 4.68L16.51 4.68Q16.70 4.68 16.81 4.79L16.81 4.79L16.81 4.79Q16.93 4.90 16.93 5.10L16.93 5.10L16.93 11.91L16.93 11.91Q16.93 12.10 16.81 12.21L16.81 12.21L16.81 12.21Q16.70 12.33 16.51 12.33L16.51 12.33L16.51 12.33Q16.32 12.33 16.20 12.21L16.20 12.21L16.20 12.21Q16.09 12.10 16.09 11.91L16.09 11.91L16.09 11.19L16.09 11.19Q15.61 11.77 14.92 12.10L14.92 12.10L14.92 12.10Q14.24 12.43 13.43 12.43L13.43 12.43L13.43 12.43Q12.40 12.43 11.60 12.01L11.60 12.01L11.60 12.01Q10.79 11.59 10.34 10.79L10.34 10.79L10.34 10.79Q9.88 9.98 9.88 8.86L9.88 8.86L9.88 5.10L9.88 5.10Q9.88 4.91 10.00 4.79L10.00 4.79L10.00 4.79Q10.12 4.68 10.30 4.68L10.30 4.68L10.30 4.68Q10.49 4.68 10.60 4.79L10.60 4.79L10.60 4.79Q10.72 4.91 10.72 5.10L10.72 5.10L10.72 8.86L10.72 8.86Q10.72 10.19 11.47 10.89L11.47 10.89L11.47 10.89Q12.22 11.59 13.43 11.59L13.43 11.59L13.43 11.59Q14.17 11.59 14.78 11.30L14.78 11.30L14.78 11.30Q15.39 11.02 15.74 10.51L15.74 10.51L15.74 10.51Q16.09 10.00 16.09 9.38L16.09 9.38L16.09 5.10L16.09 5.10Q16.09 4.90 16.20 4.79L16.20 4.79L16.20 4.79Q16.32 4.68 16.51 4.68L16.51 4.68ZM25.47 4.69L25.47 4.69Q25.70 4.80 25.70 5.05L25.70 5.05L25.70 5.05Q25.70 5.15 25.68 5.21L25.68 5.21L22.53 12.05L22.53 12.05Q22.39 12.35 22.08 12.35L22.08 12.35L22.08 12.35Q21.95 12.35 21.85 12.27L21.85 12.27L21.85 12.27Q21.74 12.19 21.69 12.05L21.69 12.05L18.49 5.22L18.49 5.22Q18.47 5.17 18.47 5.07L18.47 5.07L18.47 5.07Q18.47 4.82 18.70 4.70L18.70 4.70L18.70 4.70Q18.79 4.66 18.87 4.66L18.87 4.66L18.87 4.66Q19.11 4.66 19.22 4.90L19.22 4.90L22.09 11.12L24.92 4.89L24.92 4.89Q25.03 4.65 25.28 4.65L25.28 4.65L25.28 4.65Q25.38 4.65 25.47 4.69L25.47 4.69ZM42.01 1.40L42.01 1.40Q42.20 1.40 42.31 1.52L42.31 1.52L42.31 1.52Q42.42 1.64 42.42 1.82L42.42 1.82L42.42 11.91L42.42 11.91Q42.42 12.10 42.31 12.21L42.31 12.21L42.31 12.21Q42.20 12.33 42.01 12.33L42.01 12.33L42.01 12.33Q41.83 12.33 41.71 12.21L41.71 12.21L41.71 12.21Q41.58 12.10 41.58 11.91L41.58 11.91L41.58 3.33L37.32 12.00L37.32 12.00Q37.23 12.19 36.96 12.19L36.96 12.19L36.96 12.19Q36.71 12.19 36.57 11.93L36.57 11.93L32.33 3.46L32.33 11.91L32.33 11.91Q32.33 12.10 32.21 12.21L32.21 12.21L32.21 12.21Q32.09 12.33 31.91 12.33L31.91 12.33L31.91 12.33Q31.72 12.33 31.61 12.21L31.61 12.21L31.61 12.21Q31.49 12.10 31.49 11.91L31.49 11.91L31.49 1.82L31.49 1.82Q31.49 1.64 31.61 1.52L31.61 1.52L31.61 1.52Q31.72 1.40 31.91 1.40L31.91 1.40L31.91 1.40Q32.19 1.40 32.28 1.61L32.28 1.61L36.99 10.91L41.64 1.61L41.64 1.61Q41.76 1.40 42.01 1.40L42.01 1.40ZM48.58 4.59L48.58 4.59Q49.67 4.59 50.57 5.10L50.57 5.10L50.57 5.10Q51.46 5.61 51.98 6.51L51.98 6.51L51.98 6.51Q52.49 7.41 52.49 8.51L52.49 8.51L52.49 8.51Q52.49 9.60 51.98 10.50L51.98 10.50L51.98 10.50Q51.46 11.40 50.57 11.91L50.57 11.91L50.57 11.91Q49.67 12.42 48.58 12.42L48.58 12.42L48.58 12.42Q47.47 12.42 46.58 11.91L46.58 11.91L46.58 11.91Q45.68 11.40 45.17 10.50L45.17 10.50L45.17 10.50Q44.66 9.60 44.66 8.51L44.66 8.51L44.66 8.51Q44.66 7.41 45.17 6.51L45.17 6.51L45.17 6.51Q45.68 5.61 46.58 5.10L46.58 5.10L46.58 5.10Q47.47 4.59 48.58 4.59L48.58 4.59ZM48.58 5.38L48.58 5.38Q47.71 5.38 47.01 5.79L47.01 5.79L47.01 5.79Q46.31 6.20 45.91 6.92L45.91 6.92L45.91 6.92Q45.50 7.63 45.50 8.51L45.50 8.51L45.50 8.51Q45.50 9.39 45.91 10.11L45.91 10.11L45.91 10.11Q46.31 10.82 47.01 11.23L47.01 11.23L47.01 11.23Q47.71 11.63 48.58 11.63L48.58 11.63L48.58 11.63Q49.45 11.63 50.15 11.23L50.15 11.23L50.15 11.23Q50.85 10.82 51.25 10.11L51.25 10.11L51.25 10.11Q51.65 9.39 51.65 8.51L51.65 8.51L51.65 8.51Q51.65 7.63 51.25 6.92L51.25 6.92L51.25 6.92Q50.85 6.20 50.15 5.79L50.15 5.79L50.15 5.79Q49.45 5.38 48.58 5.38L48.58 5.38ZM58.09 4.58L58.09 4.58Q59.11 4.58 59.91 5.00L59.91 5.00L59.91 5.00Q60.72 5.42 61.17 6.22L61.17 6.22L61.17 6.22Q61.63 7.03 61.63 8.15L61.63 8.15L61.63 11.91L61.63 11.91Q61.63 12.10 61.51 12.21L61.51 12.21L61.51 12.21Q61.39 12.33 61.21 12.33L61.21 12.33L61.21 12.33Q61.03 12.33 60.91 12.21L60.91 12.21L60.91 12.21Q60.79 12.10 60.79 11.91L60.79 11.91L60.79 8.15L60.79 8.15Q60.79 6.82 60.04 6.12L60.04 6.12L60.04 6.12Q59.29 5.42 58.09 5.42L58.09 5.42L58.09 5.42Q57.34 5.42 56.73 5.70L56.73 5.70L56.73 5.70Q56.13 5.99 55.78 6.50L55.78 6.50L55.78 6.50Q55.43 7.01 55.43 7.63L55.43 7.63L55.43 11.91L55.43 11.91Q55.43 12.10 55.31 12.21L55.31 12.21L55.31 12.21Q55.20 12.33 55.01 12.33L55.01 12.33L55.01 12.33Q54.82 12.33 54.70 12.21L54.70 12.21L54.70 12.21Q54.59 12.10 54.59 11.91L54.59 11.91L54.59 5.10L54.59 5.10Q54.59 4.90 54.70 4.79L54.70 4.79L54.70 4.79Q54.82 4.68 55.01 4.68L55.01 4.68L55.01 4.68Q55.20 4.68 55.31 4.79L55.31 4.79L55.31 4.79Q55.43 4.90 55.43 5.10L55.43 5.10L55.43 5.82L55.43 5.82Q55.90 5.24 56.59 4.91L56.59 4.91L56.59 4.91Q57.27 4.58 58.09 4.58L58.09 4.58ZM67.19 4.61L67.19 4.61Q68.21 4.61 69.01 5.09L69.01 5.09L69.01 5.09Q69.82 5.57 70.27 6.43L70.27 6.43L70.27 6.43Q70.71 7.28 70.71 8.37L70.71 8.37L70.71 8.37Q70.71 8.55 70.60 8.66L70.60 8.66L70.60 8.66Q70.49 8.76 70.31 8.76L70.31 8.76L64.44 8.76L64.44 8.76Q64.48 9.59 64.88 10.24L64.88 10.24L64.88 10.24Q65.27 10.89 65.93 11.26L65.93 11.26L65.93 11.26Q66.58 11.62 67.40 11.62L67.40 11.62L67.40 11.62Q67.94 11.62 68.50 11.43L68.50 11.43L68.50 11.43Q69.05 11.24 69.37 10.93L69.37 10.93L69.37 10.93Q69.51 10.82 69.66 10.82L69.66 10.82L69.66 10.82Q69.82 10.82 69.92 10.91L69.92 10.91L69.92 10.91Q70.07 11.03 70.07 11.20L70.07 11.20L70.07 11.20Q70.07 11.34 69.94 11.47L69.94 11.47L69.94 11.47Q69.50 11.87 68.78 12.14L68.78 12.14L68.78 12.14Q68.05 12.40 67.40 12.40L67.40 12.40L67.40 12.40Q66.29 12.40 65.43 11.91L65.43 11.91L65.43 11.91Q64.57 11.41 64.08 10.52L64.08 10.52L64.08 10.52Q63.59 9.63 63.59 8.51L63.59 8.51L63.59 8.51Q63.59 7.38 64.04 6.49L64.04 6.49L64.04 6.49Q64.50 5.60 65.32 5.10L65.32 5.10L65.32 5.10Q66.14 4.61 67.19 4.61L67.19 4.61ZM67.19 5.39L67.19 5.39Q66.09 5.39 65.34 6.12L65.34 6.12L65.34 6.12Q64.60 6.85 64.46 8.04L64.46 8.04L69.90 8.04L69.90 8.04Q69.80 6.85 69.06 6.12L69.06 6.12L69.06 6.12Q68.32 5.39 67.19 5.39L67.19 5.39ZM78.62 4.69L78.62 4.69Q78.89 4.80 78.89 5.01L78.89 5.01L78.89 5.01Q78.89 5.07 78.83 5.21L78.83 5.21L74.13 15.40L74.13 15.40Q74.00 15.65 73.81 15.65L73.81 15.65L73.81 15.65Q73.72 15.65 73.61 15.61L73.61 15.61L73.61 15.61Q73.35 15.50 73.35 15.29L73.35 15.29L73.35 15.29Q73.35 15.23 73.40 15.09L73.40 15.09L74.80 12.07L74.80 12.07Q74.79 12.05 74.75 11.97L74.75 11.97L71.68 5.25L71.68 5.25Q71.62 5.14 71.62 5.03L71.62 5.03L71.62 5.03Q71.62 4.82 71.86 4.70L71.86 4.70L71.86 4.70Q71.97 4.65 72.09 4.65L72.09 4.65L72.09 4.65Q72.30 4.65 72.41 4.89L72.41 4.89L75.25 11.10L78.11 4.90L78.11 4.90Q78.23 4.65 78.43 4.65L78.43 4.65L78.43 4.65Q78.53 4.65 78.62 4.69L78.62 4.69Z"></path></g><defs data-v-423bf9ae=""><linearGradient data-v-423bf9ae="" gradientTransform="rotate(25)" id="d4fecbb5-c9ab-4402-8501-0fcef8c95dce" x1="0%" y1="0%" x2="100%" y2="0%"><stop data-v-423bf9ae="" offset="0%" style="stop-color: rgb(255, 90, 32); stop-opacity: 1;"></stop><stop data-v-423bf9ae="" offset="100%" style="stop-color: rgb(255, 172, 199); stop-opacity: 1;"></stop></linearGradient></defs><g data-v-423bf9ae="" id="1f07483f-8588-443a-80cd-cec4c75280e1" transform="matrix(1.3396489753737657,0,0,1.3396489753737657,96.52485772481646,-21.57303585742096)" stroke="none" fill="url(#d4fecbb5-c9ab-4402-8501-0fcef8c95dce)"><path d="M88.5 41.26a1.35 1.35 0 0 0-.21-.68 1.38 1.38 0 0 0-.86-.58c-.47-.36-1.13-.82-2.11-1.47l-5.08-3.36a13.72 13.72 0 0 0-4.67-8.81A16.81 16.81 0 0 0 64 22.11a16.61 16.61 0 0 0-3 .29l-7.64-5.06a6.47 6.47 0 0 0-6.69 0L39 22.43a16.62 16.62 0 0 0-3.19-.32 17 17 0 0 0-11.52 4.17 13.7 13.7 0 0 0-4.73 9l-4.85 3.21c-1 .65-1.63 1.11-2.11 1.47a1.38 1.38 0 0 0-.86.58 1.35 1.35 0 0 0-.21.68 1.93 1.93 0 0 0 0 .33v37.56A4.48 4.48 0 0 0 16 83.59h68a4.48 4.48 0 0 0 4.48-4.48V41.58a1.94 1.94 0 0 0 .02-.32zm-3.92.11l-6.15 4.07a34.26 34.26 0 0 0 1.82-6.95l3.54 2.35zM48.19 19.66a3.7 3.7 0 0 1 3.62 0l5.76 3.82c-.35.16-.71.32-1 .51a14.08 14.08 0 0 0-5 4.81c-.73 1.2-1.27 2.19-1.66 3a34.52 34.52 0 0 0-1.71-3.07 14.14 14.14 0 0 0-5-4.77c-.27-.16-.57-.28-.86-.42zm-22.11 8.71a14.13 14.13 0 0 1 9.7-3.48 11.8 11.8 0 0 1 6 1.47 11.4 11.4 0 0 1 4 3.83A30.85 30.85 0 0 1 48 34.47c.4.91.77 1.76 1.81 1.77 1 0 1.41-.83 1.84-1.79a33.5 33.5 0 0 1 2.21-4.2 11.3 11.3 0 0 1 4-3.87 11.81 11.81 0 0 1 6-1.49 13.93 13.93 0 0 1 9.76 3.53 10.91 10.91 0 0 1 3.85 8.5c0 3-1.94 8.53-3.32 11.29l-1.39.92L50 64.27l-22.69-15a17.08 17.08 0 0 0-1.67-1.83 6.57 6.57 0 0 1-1.39-1.68 17.87 17.87 0 0 1-2.07-8.49 11.14 11.14 0 0 1 3.9-8.9zm-6.6 10.3A20.63 20.63 0 0 0 20.85 45l-5.43-3.6.78-.53zM84 80.81H16a1.7 1.7 0 0 1-1.7-1.7V43.93l35 23.17a1.39 1.39 0 0 0 1.54 0L74.4 51.45l11.34-7.51v35.17a1.7 1.7 0 0 1-1.74 1.7z"></path><path d="M45 49.5a7.53 7.53 0 0 0 3.79 1.3V56c-1.68-.36-3-1.34-3-2.43v-.13a1.16 1.16 0 0 0-2.31-.22v.35c0 2.41 2.23 4.36 5.28 4.81v2.39a1.16 1.16 0 0 0 2.32 0v-2.42c3.23-.34 5.65-2.33 5.65-4.83 0-2.11-1.82-4-4.53-4.58-.38-.09-.76-.15-1.13-.2v-5.12c1.68.36 3 1.34 3 2.43a1.16 1.16 0 0 0 2.32 0c0-2.41-2.23-4.36-5.27-4.81V39a1.16 1.16 0 0 0-2.32 0v2.19c-3.23.34-5.65 2.33-5.65 4.83A4.38 4.38 0 0 0 45 49.5zm6.71 1.7c1.61.37 2.74 1.33 2.74 2.33 0 1.18-1.48 2.23-3.34 2.51v-4.95c.25.03.45.06.65.11zm-2.92-7.65v4.92a5 5 0 0 1-2.42-.83 2.13 2.13 0 0 1-.92-1.58c.05-1.19 1.55-2.23 3.39-2.51z"></path></g><!----></svg>