<?xml version="1.0" encoding="utf-8"?>
<!-- Generator: Adobe Illustrator 24.0.1, SVG Export Plug-In . SVG Version: 6.00 Build 0)  -->
<svg version="1.1" id="Layer_1" xmlns="http://www.w3.org/2000/svg" xmlns:xlink="http://www.w3.org/1999/xlink" x="0px" y="0px"
	 viewBox="0 0 444.63 131.43" style="enable-background:new 0 0 444.63 131.43;" xml:space="preserve">
<style type="text/css">
	.st0{fill:#2C3C77;}
	.st1{fill:#EA6766;}
</style>
<path class="st0" d="M28.33,0L28.33,0c1.36,0,2.47,1.11,2.47,2.47v126.49c0,1.36-1.11,2.47-2.47,2.47h0c-1.36,0-2.47-1.11-2.47-2.47
	V2.47C25.86,1.11,26.96,0,28.33,0z"/>
<path class="st0" d="M51.11,0L51.11,0c1.36,0,2.47,1.11,2.47,2.47v126.49c0,1.36-1.11,2.47-2.47,2.47h0c-1.36,0-2.47-1.11-2.47-2.47
	V2.47C48.64,1.11,49.74,0,51.11,0z"/>
<path class="st0" d="M111.37,38.27c0-1.17,0.94-2.11,2.11-2.11s2.11,0.94,2.11,2.11v53.75c0,1.17-0.94,2.11-2.11,2.11
	s-2.11-0.94-2.11-2.11V38.27z"/>
<path class="st0" d="M154.41,88.56c-2.62,4-6.5,6-11.65,6c-8.69,0-14-5.66-14-14.85v-25.5c0-1.17,0.94-2.11,2.11-2.11
	s2.11,0.94,2.11,2.11v25.82c0,6.33,3.62,10.72,10,10.72c6.66,0,11-4.89,11-11.56v-25c0-1.17,0.94-2.11,2.11-2.11
	s2.11,0.94,2.11,2.11v38.23c0,1.1-0.51,1.69-1.61,1.69c-0.93,0-1.52-0.59-1.6-1.69L154.41,88.56z"/>
<path class="st0" d="M172.04,53.54l12,34l11.89-34c0.25-0.86,1.04-1.45,1.94-1.44c1.16,0.03,2.09,1,2.06,2.16
	c-0.01,0.29-0.07,0.58-0.2,0.84l-13.5,37.13c-0.33,1.31-1.66,2.1-2.97,1.76c-0.87-0.22-1.54-0.9-1.76-1.76L168,55.1
	c-0.5-1.1-0.01-2.39,1.08-2.89c1.1-0.5,2.39-0.01,2.89,1.08c0.03,0.07,0.06,0.13,0.08,0.2L172.04,53.54z"/>
<path class="st0" d="M230.01,57.63c2.47-3.91,6.85-6.2,11.48-6c6.33,0,10.55,2.53,12.74,7.68c2.45-5.15,6.67-7.68,12.49-7.68
	c8.69,0,14.17,5.66,14.17,14.85v25.49c0.08,1.16-0.8,2.17-1.96,2.25c-1.16,0.08-2.17-0.8-2.25-1.96c-0.01-0.1-0.01-0.19,0-0.29V66.2
	c0-6.33-3.72-10.72-10.21-10.72s-10.8,4.73-10.8,11.14v25.4c0,1.17-0.94,2.11-2.11,2.11c-1.17,0-2.11-0.94-2.11-2.11V66.2
	c0-6.33-3.72-10.72-10.21-10.72s-10.8,4.73-10.8,11.14v25.4c0,1.17-0.94,2.11-2.11,2.11c-1.17,0-2.11-0.94-2.11-2.11V53.79
	c0-1.09,0.5-1.69,1.6-1.69c0.93,0,1.43,0.6,1.6,1.69L230.01,57.63z"/>
<path class="st0" d="M322.49,78.85c0,9.54-6.07,15.7-15.18,15.7s-15.19-6.16-15.19-15.7V67.38c0-9.54,6.07-15.7,15.19-15.7
	s15.18,6.16,15.18,15.7V78.85z M296.34,79.19c0,6.75,4.13,11.65,11,11.65s11-4.9,11-11.65V67.04c0-6.75-4.14-11.64-11-11.64
	s-11,4.89-11,11.64V79.19z"/>
<path class="st0" d="M337.85,57.76c2.62-4,6.58-6.08,11.73-6.08c8.86,0,14.43,5.66,14.43,14.85v25.49c0,1.17-0.94,2.11-2.11,2.11
	c-1.17,0-2.11-0.94-2.11-2.11V66.2c0-6.33-3.8-10.72-10.46-10.72s-11.03,4.89-11.03,11.56v25c0.08,1.16-0.8,2.17-1.96,2.25
	c-1.16,0.08-2.17-0.8-2.25-1.96c-0.01-0.1-0.01-0.19,0-0.29V53.79c0-1.09,0.5-1.69,1.6-1.69c0.93,0,1.43,0.6,1.6,1.69L337.85,57.76z
	"/>
<path class="st0" d="M405.36,81.81c-0.34,7.68-6.16,12.74-14.94,12.74c-9.11,0-15.19-5.74-15.19-14.85V67.38
	c0-9.54,6.08-15.7,15.19-15.7s14.94,6.16,14.94,15.7v3.88c0.16,1.01-0.54,1.95-1.55,2.11c-0.19,0.03-0.38,0.03-0.56,0h-23.8v6.66
	c0,6.42,4.14,11,11,11s10.72-3.88,11-9.19c-0.13-0.97,0.55-1.86,1.51-1.99c0.14-0.02,0.28-0.02,0.43-0.01
	c1.05-0.03,1.94,0.79,1.97,1.85C405.36,81.73,405.36,81.77,405.36,81.81z M379.45,69.63h21.94v-2.62c0-6.83-4.13-11.81-11-11.81
	s-11,5-11,11.81L379.45,69.63z"/>
<path class="st0" d="M425.02,108.63c-0.32,0.98-1.37,1.51-2.35,1.19c-0.98-0.32-1.51-1.37-1.19-2.35c0.02-0.07,0.05-0.13,0.08-0.2
	l5.15-13.84l-14-38.39c-0.44-1.13,0.11-2.41,1.25-2.85c0.22-0.09,0.46-0.14,0.69-0.15c0.94-0.1,1.81,0.47,2.11,1.36l12,34.17
	l12-34.26c0.2-0.8,0.96-1.34,1.78-1.27c1.15-0.01,2.09,0.92,2.1,2.06c0,0.28-0.05,0.55-0.16,0.81L425.02,108.63z"/>
<path class="st1" d="M8.22,47.9l37.24,23h8.18L10.55,44.79c-9.48-7.08-7.78-20.45,0-28.23c7.81-7.78,20.43-7.78,28.24,0l0.67,0.67
	c0.39,0.37,0.99,0.37,1.38,0l0.67-0.67c7.92-7.7,20.58-7.52,28.28,0.4c6.21,6.39,7.45,16.11,3.04,23.84
	c-0.45,0.76-0.33,1.72,0.29,2.35l0,0c0.78,0.74,2,0.71,2.74-0.06c0.1-0.1,0.18-0.22,0.26-0.34c6.66-11.34,2.87-25.94-8.47-32.6
	c-8.45-4.96-19.07-4.25-26.78,1.8c-0.44,0.36-1.08,0.36-1.52,0c-9.25-7.25-22.41-6.69-31,1.33C-1.49,22.54-3.95,39.23,8.22,47.9z"/>
<path class="st1" d="M71.22,81.87L53.64,70.95h-8.18l23.43,14c9.49,7.09,7.78,20.45,0,28.24c-7.81,7.78-20.43,7.78-28.24,0
	l-0.67-0.68c-0.39-0.37-0.99-0.37-1.38,0l-0.67,0.68c-7.92,7.7-20.58,7.52-28.28-0.4c-6.21-6.39-7.45-16.11-3.04-23.84
	c0.43-0.75,0.31-1.71-0.31-2.32l0,0c-0.76-0.74-1.97-0.73-2.72,0.03c-0.11,0.11-0.21,0.24-0.28,0.37
	c-6.67,11.33-2.89,25.93,8.45,32.6c8.45,4.97,19.09,4.26,26.79-1.81c0.45-0.35,1.07-0.35,1.52,0c9.25,7.26,22.4,6.7,31-1.32
	C80.93,107.24,83.39,90.54,71.22,81.87z"/>
</svg>
