<svg data-v-fde0c5aa="" xmlns="http://www.w3.org/2000/svg" viewBox="0 0 300 300" class="iconAbove"><!----><defs data-v-fde0c5aa=""><!----></defs><rect data-v-fde0c5aa="" fill="#EA6666" x="0" y="0" width="300px" height="300px" class="logo-background-square"></rect><defs data-v-fde0c5aa=""><!----></defs><g data-v-fde0c5aa="" id="175a1e73-b725-4e7d-b771-6d771fe2b407" fill="#2C3C77" transform="matrix(3.19124726362275,0,0,3.19124726362275,16.425803049525495,175.8478418625616)"><path d="M7.10 10.33L7.10 10.33L1.44 10.33L1.44 0.49C1.44 0.41 1.37 0.34 1.27 0.34C1.19 0.34 1.12 0.41 1.12 0.49L1.12 10.50C1.12 10.58 1.19 10.65 1.27 10.65L7.10 10.65C7.20 10.65 7.27 10.58 7.27 10.50C7.27 10.40 7.20 10.33 7.10 10.33ZM3.11 0.49L3.11 0.49L3.11 8.50C3.11 8.58 3.19 8.65 3.28 8.65L7.10 8.65C7.20 8.65 7.27 8.58 7.27 8.50C7.27 8.40 7.20 8.33 7.10 8.33L3.44 8.33L3.44 0.49C3.44 0.41 3.36 0.34 3.28 0.34C3.19 0.34 3.11 0.41 3.11 0.49ZM10.96 6.85L10.96 6.85C10.96 7.91 11.70 8.67 12.75 8.67C13.80 8.67 14.56 7.91 14.56 6.85L14.56 0.50C14.56 0.42 14.49 0.35 14.39 0.35C14.31 0.35 14.24 0.42 14.24 0.50L14.24 6.85C14.24 7.73 13.64 8.36 12.75 8.36C11.89 8.36 11.27 7.73 11.27 6.85L11.27 0.50C11.27 0.42 11.20 0.35 11.12 0.35C11.03 0.35 10.96 0.42 10.96 0.50ZM16.25 0.50L16.25 0.50L16.25 6.96C16.25 9.06 14.70 10.40 12.75 10.40C10.72 10.40 9.25 9.00 9.25 6.96L9.25 0.50C9.25 0.42 9.18 0.35 9.10 0.35C9.00 0.35 8.93 0.42 8.93 0.50L8.93 6.96C8.93 9.17 10.56 10.72 12.75 10.72C14.90 10.72 16.58 9.24 16.58 6.96L16.58 0.50C16.58 0.42 16.51 0.35 16.42 0.35C16.32 0.35 16.25 0.42 16.25 0.50ZM19.95 0.70L19.95 0.70L21.90 5.47C21.95 5.61 22.15 5.60 22.19 5.47L24.14 0.70C24.16 0.63 24.14 0.53 24.05 0.50C23.97 0.48 23.87 0.50 23.84 0.59L22.05 4.98L20.24 0.59C20.22 0.50 20.13 0.48 20.05 0.50C19.95 0.53 19.92 0.63 19.95 0.70ZM26.03 0.59L26.03 0.59L22.05 10.36L18.07 0.59C18.03 0.50 17.93 0.48 17.85 0.50C17.78 0.53 17.74 0.63 17.77 0.70L21.90 10.84C21.95 10.98 22.13 10.99 22.19 10.84L26.33 0.70C26.36 0.63 26.32 0.53 26.25 0.50C26.15 0.48 26.07 0.50 26.03 0.59ZM39.86 10.50L39.86 10.50L39.86 4.17C39.86 4.00 39.66 3.93 39.56 4.09L36.72 8.15L33.88 4.07C33.78 3.95 33.57 4.00 33.57 4.17L33.57 10.50C33.57 10.58 33.64 10.65 33.73 10.65C33.84 10.65 33.91 10.58 33.91 10.50L33.91 4.69L36.57 8.54C36.58 8.55 36.60 8.57 36.61 8.58C36.71 8.62 36.81 8.61 36.85 8.54L39.54 4.69L39.54 10.50C39.54 10.58 39.61 10.65 39.70 10.65C39.79 10.65 39.86 10.58 39.86 10.50ZM31.88 10.50L31.88 10.50L31.88 0.34C31.88 0.25 31.79 0.18 31.70 0.18C31.61 0.18 31.54 0.25 31.54 0.34L31.54 10.50C31.54 10.58 31.61 10.65 31.70 10.65C31.79 10.65 31.88 10.58 31.88 10.50ZM41.89 10.50L41.89 10.50L41.89 0.34C41.89 0.25 41.82 0.18 41.72 0.18C41.64 0.18 41.57 0.25 41.57 0.34L41.57 10.50C41.57 10.58 41.64 10.65 41.72 10.65C41.82 10.65 41.89 10.58 41.89 10.50ZM39.76 0.25L39.76 0.25L36.72 4.61L33.67 0.25C33.61 0.17 33.52 0.15 33.45 0.21C33.38 0.25 33.35 0.36 33.40 0.43L36.57 4.98C36.58 5.00 36.60 5.01 36.61 5.03C36.71 5.08 36.81 5.05 36.85 4.98L40.03 0.43C40.07 0.36 40.05 0.25 39.98 0.21C39.91 0.15 39.80 0.17 39.76 0.25ZM54.32 3.86L54.32 3.86C53.61 1.64 51.48 0.13 49.14 0.13C45.98 0.13 43.79 2.39 43.79 5.47C43.79 8.57 45.98 10.84 49.14 10.84C51.48 10.84 53.61 9.34 54.32 7.08C54.35 7 54.29 6.90 54.21 6.87C54.11 6.85 54.03 6.89 54.00 6.99C53.33 9.10 51.35 10.50 49.14 10.50C46.17 10.50 44.11 8.39 44.11 5.47C44.11 2.56 46.17 0.46 49.14 0.46C51.35 0.46 53.33 1.86 54.00 3.96C54.03 4.06 54.11 4.10 54.21 4.07C54.29 4.06 54.35 3.95 54.32 3.86ZM46.34 7.11L46.34 7.11C46.91 8.12 47.98 8.76 49.14 8.76C50.95 8.76 52.37 7.27 52.37 5.47C52.37 3.70 50.95 2.20 49.14 2.20C47.98 2.20 46.91 2.83 46.34 3.84C46.30 3.92 46.33 4.02 46.40 4.07C46.48 4.12 46.59 4.09 46.63 4.00C47.14 3.09 48.09 2.52 49.14 2.52C50.76 2.52 52.04 3.86 52.04 5.47C52.04 7.08 50.76 8.43 49.14 8.43C48.09 8.43 47.14 7.85 46.63 6.94C46.59 6.87 46.48 6.85 46.40 6.89C46.33 6.93 46.30 7.04 46.34 7.11ZM64.69 10.50L64.69 10.50L64.69 0.50C64.69 0.28 64.36 0.28 64.36 0.50L64.36 10.50C64.36 10.71 64.69 10.71 64.69 10.50ZM56.53 10.50L56.53 10.50L56.53 0.50C56.53 0.28 56.21 0.28 56.21 0.50L56.21 10.50C56.21 10.71 56.53 10.71 56.53 10.50ZM58.06 0.59L58.06 0.59L62.40 6.82C62.48 6.96 62.71 6.87 62.71 6.72L62.71 0.50C62.71 0.28 62.37 0.28 62.37 0.50L62.37 6.20L58.31 0.41C58.20 0.22 57.93 0.42 58.06 0.59ZM62.86 10.40L62.86 10.40L58.52 4.17C58.41 4.05 58.21 4.12 58.21 4.27L58.21 10.50C58.21 10.71 58.55 10.71 58.55 10.50L58.55 4.79L62.58 10.60C62.72 10.77 62.97 10.58 62.86 10.40ZM71.36 6.33L71.36 6.33L69.12 6.33C69.02 6.33 68.95 6.40 68.95 6.50L68.95 8.50C68.95 8.58 69.02 8.65 69.12 8.65L72.30 8.65C72.38 8.65 72.45 8.58 72.45 8.50C72.45 8.40 72.38 8.33 72.30 8.33L69.27 8.33L69.27 6.65L71.36 6.65C71.46 6.65 71.53 6.58 71.53 6.50C71.53 6.40 71.46 6.33 71.36 6.33ZM72.30 2.34L72.30 2.34L69.12 2.34C69.02 2.34 68.95 2.41 68.95 2.49L68.95 4.49C68.95 4.58 69.02 4.66 69.12 4.66L71.36 4.66C71.46 4.66 71.53 4.58 71.53 4.49C71.53 4.41 71.46 4.33 71.36 4.33L69.27 4.33L69.27 2.66L72.30 2.66C72.38 2.66 72.45 2.59 72.45 2.49C72.45 2.41 72.38 2.34 72.30 2.34ZM72.30 10.33L72.30 10.33L67.27 10.33L67.27 0.66L72.30 0.66C72.38 0.66 72.45 0.59 72.45 0.49C72.45 0.41 72.38 0.34 72.30 0.34L67.12 0.34C67.02 0.34 66.95 0.41 66.95 0.49L66.95 10.50C66.95 10.58 67.02 10.65 67.12 10.65L72.30 10.65C72.38 10.65 72.45 10.58 72.45 10.50C72.45 10.40 72.38 10.33 72.30 10.33ZM75.77 0.57L75.77 0.57L77.80 4.05C77.87 4.16 78.02 4.16 78.09 4.05L80.14 0.57C80.18 0.49 80.15 0.39 80.08 0.35C80.00 0.31 79.91 0.34 79.84 0.41L77.94 3.64L76.03 0.41C75.99 0.34 75.89 0.31 75.82 0.35C75.74 0.39 75.71 0.49 75.77 0.57ZM82.29 0.41L82.29 0.41L78.81 5.94C78.79 5.98 78.79 6.01 78.79 6.03L78.79 10.47C78.79 10.58 78.86 10.65 78.95 10.65C79.03 10.65 79.10 10.58 79.10 10.47L79.10 6.08L82.57 0.57C82.61 0.50 82.60 0.41 82.52 0.35C82.45 0.31 82.35 0.34 82.29 0.41ZM77.11 10.47L77.11 10.47L77.11 6.02C77.11 5.99 77.10 5.96 77.08 5.94L73.60 0.41C73.54 0.34 73.44 0.31 73.37 0.35C73.30 0.41 73.28 0.50 73.33 0.57L76.78 6.08L76.78 10.47C76.78 10.58 76.85 10.65 76.94 10.65C77.04 10.65 77.11 10.58 77.11 10.47Z"></path></g><defs data-v-fde0c5aa=""><!----></defs><g data-v-fde0c5aa="" id="6372894b-2570-4c24-b5b0-443fef1aff6b" stroke="none" fill="#2c3c77" transform="matrix(0.9359776347239647,0,0,0.9359776347239647,103.2010209684582,76.93841337956839)"><path d="M79.703 42.046c-.262-.087-.524-.175-.787-.175 2.098-7.255 1.661-14.423-3.322-20.716-4.72-5.944-9.703-8.042-14.248-8.042-10.577 0-19.23 10.926-19.23 10.926S33.9 13.725 23.761 13.113h-.874c-4.371.262-8.916 2.447-13.374 7.954-20.104 25.087 33.478 65.82 33.478 65.82s5.769-4.37 12.762-11.188a21.723 21.723 0 0 0 17.482 8.828C85.21 84.527 95 74.737 95 62.762c0-9.615-6.381-17.919-15.297-20.716zM42.991 82.342c-3.059-2.448-9.353-7.78-15.734-14.598C15.894 55.769 9.425 44.843 8.551 36.102c-.525-4.72.612-8.828 3.496-12.412 3.496-4.37 7.255-6.556 11.363-6.731 8.654.262 16.171 9.528 16.258 9.615l2.535 3.147 2.535-3.147c.087-.087 7.867-9.703 16.695-9.703 4.283 0 8.129 2.185 11.8 6.731 2.885 3.584 4.021 7.605 3.496 12.412a22.202 22.202 0 0 1-1.136 5.07c-.699-.087-1.486-.175-2.273-.175-11.975 0-21.765 9.79-21.765 21.765 0 3.496.874 6.905 2.36 9.79-4.631 4.633-8.652 8.042-10.924 9.878zm30.244-.35c-6.381 0-12.063-3.147-15.559-8.042a23.766 23.766 0 0 1-1.836-3.234c-1.049-2.448-1.661-5.07-1.661-7.867 0-10.577 8.566-19.143 19.143-19.143.699 0 1.486.087 2.185.087 1.136.175 2.36.35 3.409.699 7.867 2.36 13.549 9.703 13.549 18.356-.087 10.578-8.654 19.144-19.23 19.144z"></path><path d="M74.468 53.946c1.931 0 3.54.805 4.827 2.333l1.254-1.29c-1.207-1.528-3.506-2.812-6-2.812-2.413 0-4.344.885-5.872 2.494-1.367 1.448-2.333 3.378-2.735 5.872l-1.684.009-.408 1.359h1.931c-.08.242-.08.483-.08.644v1.126l-1.505-.004-.345 1.371h2.011c.322 2.654 1.126 4.746 2.494 6.355 1.528 1.77 3.539 2.655 6.033 2.655 2.011 0 4.744-1.173 6.044-2.694l-.734-1.57c-.885.804-1.609 1.448-2.333 1.85a5.946 5.946 0 0 1-2.896.724c-1.93 0-3.539-.725-4.746-2.253-.965-1.287-1.609-2.976-1.85-5.068h7.447l.563-1.368h-8.09v-.482c0-.322 0-.804.08-1.287h8.654l.563-1.368h-9.22c.403-1.93 1.046-3.459 2.092-4.585 1.207-1.367 2.655-2.011 4.505-2.011z"></path></g><!----></svg>