<svg id="Layer_1" data-name="Layer 1" xmlns="http://www.w3.org/2000/svg" viewBox="0 0 216.65 358.52"><defs><style>.cls-1{fill:#2c3c77;}.cls-2{fill:#ea6766;}</style></defs><title>Luv Logo</title><rect class="cls-1" x="70.52" width="13.49" height="358.52" rx="2.47"/><rect class="cls-1" x="132.65" width="13.49" height="358.52" rx="2.47"/><path class="cls-2" d="M166.27,201.59l101.58,62.87h22.32L172.63,193.11c-25.88-19.33-21.23-55.78,0-77a54.53,54.53,0,0,1,77,0l1.84,1.84a2.65,2.65,0,0,0,3.74,0l1.84-1.84a54.45,54.45,0,0,1,85.44,66.12,5.29,5.29,0,0,0,.78,6.42h0a5.29,5.29,0,0,0,8.29-1.09,65,65,0,0,0-96.15-84,3.35,3.35,0,0,1-4.15,0,65,65,0,0,0-84.51,3.62C139.79,132.4,133.07,178,166.27,201.59Z" transform="translate(-143.87 -70.93)"/><path class="cls-2" d="M338.13,294.26l-48-29.8H267.85l63.91,38.28c25.88,19.33,21.23,55.79,0,77a54.51,54.51,0,0,1-77,0l-1.84-1.84a2.66,2.66,0,0,0-3.75,0l-1.84,1.84a54.45,54.45,0,0,1-85.44-66.12,5.27,5.27,0,0,0-.78-6.41h0a5.27,5.27,0,0,0-8.28,1.09,65,65,0,0,0,96.14,84,3.32,3.32,0,0,1,4.15,0,65.07,65.07,0,0,0,84.51-3.62C364.61,363.45,371.32,317.91,338.13,294.26Z" transform="translate(-143.87 -70.93)"/></svg>